<svg xmlns="http://www.w3.org/2000/svg" xmlns:xlink="http://www.w3.org/1999/xlink" width="416" zoomAndPan="magnify" viewBox="0 0 312 66" height="88" preserveAspectRatio="xMidYMid meet" version="1.0"><defs><g/><clipPath id="25b1fefcac"><path d="M 0 16.066406 L 45 16.066406 L 45 65.566406 L 0 65.566406 Z M 0 16.066406 " clip-rule="nonzero"/></clipPath></defs><path fill="#8c52ff" d="M 8.15625 48.449219 L 8.15625 46.265625 L 2.074219 46.265625 C 2.183594 46.992188 2.265625 47.722656 2.332031 48.449219 Z M 8.15625 48.449219 " fill-opacity="1" fill-rule="nonzero"/><g clip-path="url(#25b1fefcac)"><path fill="#8c52ff" d="M 39.316406 40.964844 C 42.625 38.425781 44.757812 34.4375 44.757812 29.953125 C 44.757812 22.300781 38.535156 16.078125 30.882812 16.078125 L 0 16.078125 C 0.390625 17.121094 0.730469 18.175781 1.023438 19.238281 C 1.257812 20.089844 1.464844 20.949219 1.644531 21.808594 L 32.21875 21.808594 L 32.269531 21.816406 C 33.386719 22.007812 34.4375 22.417969 35.382812 23.046875 L 37.203125 24.246094 L 12.578125 24.246094 L 12.578125 26.429688 L 38.355469 26.429688 L 38.519531 26.832031 C 38.683594 27.226562 38.816406 27.644531 38.914062 28.066406 L 39.101562 28.867188 L 12.578125 28.867188 L 12.578125 30.265625 L 10.367188 28.867188 L 8.15625 30.265625 L 8.15625 28.867188 L 2.476562 28.867188 C 2.480469 28.964844 2.488281 29.070312 2.488281 29.171875 C 2.503906 29.800781 2.496094 30.421875 2.484375 31.042969 L 39.101562 31.042969 L 38.914062 31.847656 C 38.816406 32.265625 38.683594 32.679688 38.519531 33.078125 L 38.355469 33.480469 L 2.355469 33.480469 C 2.292969 34.210938 2.207031 34.9375 2.105469 35.660156 L 37.203125 35.660156 L 35.382812 36.859375 C 34.4375 37.488281 33.386719 37.898438 32.269531 38.089844 L 32.21875 38.09375 L 1.691406 38.09375 L 1.691406 38.097656 C 1.519531 38.960938 1.320312 39.816406 1.089844 40.667969 C 1.050781 40.808594 1.011719 40.945312 0.96875 41.082031 C 0.710938 42.007812 0.417969 42.921875 0.0898438 43.828125 L 32.21875 43.828125 L 32.269531 43.839844 C 33.386719 44.027344 34.4375 44.441406 35.382812 45.066406 L 37.203125 46.265625 L 12.578125 46.265625 L 12.578125 48.449219 L 38.355469 48.449219 L 38.519531 48.855469 C 38.683594 49.25 38.816406 49.664062 38.914062 50.085938 L 39.101562 50.886719 L 12.578125 50.886719 L 12.578125 52.289062 L 10.367188 50.886719 L 8.15625 52.289062 L 8.15625 50.886719 L 2.476562 50.886719 C 2.480469 50.988281 2.488281 51.09375 2.488281 51.195312 C 2.503906 51.820312 2.496094 52.441406 2.484375 53.066406 L 39.101562 53.066406 L 38.914062 53.871094 C 38.816406 54.289062 38.683594 54.703125 38.519531 55.097656 L 38.355469 55.503906 L 2.355469 55.503906 C 2.292969 56.230469 2.207031 56.957031 2.105469 57.683594 L 37.203125 57.683594 L 35.382812 58.882812 C 34.4375 59.507812 33.386719 59.921875 32.269531 60.109375 L 32.21875 60.117188 L 1.691406 60.117188 C 1.519531 60.980469 1.320312 61.839844 1.089844 62.691406 C 0.800781 63.753906 0.46875 64.808594 0.0898438 65.851562 L 30.882812 65.851562 C 38.535156 65.851562 44.757812 59.625 44.757812 51.972656 C 44.757812 47.492188 42.625 43.503906 39.316406 40.964844 Z M 39.316406 40.964844 " fill-opacity="1" fill-rule="nonzero"/></g><path fill="#8c52ff" d="M 8.15625 26.429688 L 8.15625 24.246094 L 2.074219 24.246094 C 2.183594 24.972656 2.265625 25.699219 2.332031 26.429688 Z M 8.15625 26.429688 " fill-opacity="1" fill-rule="nonzero"/><g fill="#261519" fill-opacity="1"><g transform="translate(58.63589, 36.471442)"><g><path d="M 18.359375 -11.015625 C 19.566406 -10.597656 20.507812 -9.941406 21.1875 -9.046875 C 21.875 -8.148438 22.21875 -7.066406 22.21875 -5.796875 C 22.21875 -3.941406 21.472656 -2.507812 19.984375 -1.5 C 18.492188 -0.5 16.34375 0 13.53125 0 L 2.109375 0 L 2.109375 -21.125 L 12.921875 -21.125 C 15.617188 -21.125 17.671875 -20.625 19.078125 -19.625 C 20.484375 -18.632812 21.1875 -17.296875 21.1875 -15.609375 C 21.1875 -14.597656 20.941406 -13.695312 20.453125 -12.90625 C 19.960938 -12.113281 19.265625 -11.484375 18.359375 -11.015625 Z M 8.03125 -16.8125 L 8.03125 -12.734375 L 12.140625 -12.734375 C 14.148438 -12.734375 15.15625 -13.421875 15.15625 -14.796875 C 15.15625 -16.140625 14.148438 -16.8125 12.140625 -16.8125 Z M 13.046875 -4.3125 C 15.140625 -4.3125 16.1875 -5.023438 16.1875 -6.453125 C 16.1875 -7.890625 15.140625 -8.609375 13.046875 -8.609375 L 8.03125 -8.609375 L 8.03125 -4.3125 Z M 13.046875 -4.3125 "/></g></g></g><g fill="#261519" fill-opacity="1"><g transform="translate(81.850115, 36.471442)"><g><path d="M 12.765625 0.421875 C 10.535156 0.421875 8.53125 -0.0507812 6.75 -1 C 4.96875 -1.945312 3.566406 -3.253906 2.546875 -4.921875 C 1.535156 -6.585938 1.03125 -8.46875 1.03125 -10.5625 C 1.03125 -12.65625 1.535156 -14.535156 2.546875 -16.203125 C 3.566406 -17.878906 4.96875 -19.1875 6.75 -20.125 C 8.53125 -21.070312 10.535156 -21.546875 12.765625 -21.546875 C 15.003906 -21.546875 17.015625 -21.070312 18.796875 -20.125 C 20.578125 -19.1875 21.972656 -17.878906 22.984375 -16.203125 C 24.003906 -14.535156 24.515625 -12.65625 24.515625 -10.5625 C 24.515625 -8.46875 24.003906 -6.585938 22.984375 -4.921875 C 21.972656 -3.253906 20.578125 -1.945312 18.796875 -1 C 17.015625 -0.0507812 15.003906 0.421875 12.765625 0.421875 Z M 12.765625 -4.53125 C 13.835938 -4.53125 14.804688 -4.78125 15.671875 -5.28125 C 16.535156 -5.78125 17.21875 -6.488281 17.71875 -7.40625 C 18.21875 -8.320312 18.46875 -9.375 18.46875 -10.5625 C 18.46875 -11.75 18.21875 -12.800781 17.71875 -13.71875 C 17.21875 -14.632812 16.535156 -15.34375 15.671875 -15.84375 C 14.804688 -16.351562 13.835938 -16.609375 12.765625 -16.609375 C 11.703125 -16.609375 10.738281 -16.351562 9.875 -15.84375 C 9.007812 -15.34375 8.320312 -14.632812 7.8125 -13.71875 C 7.3125 -12.800781 7.0625 -11.75 7.0625 -10.5625 C 7.0625 -9.375 7.3125 -8.320312 7.8125 -7.40625 C 8.320312 -6.488281 9.007812 -5.78125 9.875 -5.28125 C 10.738281 -4.78125 11.703125 -4.53125 12.765625 -4.53125 Z M 12.765625 -4.53125 "/></g></g></g><g fill="#261519" fill-opacity="1"><g transform="translate(107.388783, 36.471442)"><g><path d="M 12.765625 0.421875 C 10.535156 0.421875 8.53125 -0.0507812 6.75 -1 C 4.96875 -1.945312 3.566406 -3.253906 2.546875 -4.921875 C 1.535156 -6.585938 1.03125 -8.46875 1.03125 -10.5625 C 1.03125 -12.65625 1.535156 -14.535156 2.546875 -16.203125 C 3.566406 -17.878906 4.96875 -19.1875 6.75 -20.125 C 8.53125 -21.070312 10.535156 -21.546875 12.765625 -21.546875 C 15.003906 -21.546875 17.015625 -21.070312 18.796875 -20.125 C 20.578125 -19.1875 21.972656 -17.878906 22.984375 -16.203125 C 24.003906 -14.535156 24.515625 -12.65625 24.515625 -10.5625 C 24.515625 -8.46875 24.003906 -6.585938 22.984375 -4.921875 C 21.972656 -3.253906 20.578125 -1.945312 18.796875 -1 C 17.015625 -0.0507812 15.003906 0.421875 12.765625 0.421875 Z M 12.765625 -4.53125 C 13.835938 -4.53125 14.804688 -4.78125 15.671875 -5.28125 C 16.535156 -5.78125 17.21875 -6.488281 17.71875 -7.40625 C 18.21875 -8.320312 18.46875 -9.375 18.46875 -10.5625 C 18.46875 -11.75 18.21875 -12.800781 17.71875 -13.71875 C 17.21875 -14.632812 16.535156 -15.34375 15.671875 -15.84375 C 14.804688 -16.351562 13.835938 -16.609375 12.765625 -16.609375 C 11.703125 -16.609375 10.738281 -16.351562 9.875 -15.84375 C 9.007812 -15.34375 8.320312 -14.632812 7.8125 -13.71875 C 7.3125 -12.800781 7.0625 -11.75 7.0625 -10.5625 C 7.0625 -9.375 7.3125 -8.320312 7.8125 -7.40625 C 8.320312 -6.488281 9.007812 -5.78125 9.875 -5.28125 C 10.738281 -4.78125 11.703125 -4.53125 12.765625 -4.53125 Z M 12.765625 -4.53125 "/></g></g></g><g fill="#261519" fill-opacity="1"><g transform="translate(132.927452, 36.471442)"><g><path d="M 10.265625 -7.671875 L 8.03125 -5.28125 L 8.03125 0 L 2.109375 0 L 2.109375 -21.125 L 8.03125 -21.125 L 8.03125 -12.34375 L 16.203125 -21.125 L 22.796875 -21.125 L 14.15625 -11.765625 L 23.25 0 L 16.296875 0 Z M 10.265625 -7.671875 "/></g></g></g><g fill="#261519" fill-opacity="1"><g transform="translate(155.628489, 36.471442)"><g><path d="M 9.546875 0.421875 C 7.828125 0.421875 6.160156 0.210938 4.546875 -0.203125 C 2.941406 -0.628906 1.640625 -1.195312 0.640625 -1.90625 L 2.59375 -6.3125 C 3.539062 -5.6875 4.640625 -5.179688 5.890625 -4.796875 C 7.140625 -4.410156 8.363281 -4.21875 9.5625 -4.21875 C 11.863281 -4.21875 13.015625 -4.796875 13.015625 -5.953125 C 13.015625 -6.554688 12.6875 -7.003906 12.03125 -7.296875 C 11.375 -7.585938 10.320312 -7.894531 8.875 -8.21875 C 7.28125 -8.550781 5.953125 -8.914062 4.890625 -9.3125 C 3.828125 -9.707031 2.910156 -10.335938 2.140625 -11.203125 C 1.378906 -12.066406 1 -13.234375 1 -14.703125 C 1 -15.992188 1.347656 -17.15625 2.046875 -18.1875 C 2.753906 -19.226562 3.804688 -20.046875 5.203125 -20.640625 C 6.609375 -21.242188 8.328125 -21.546875 10.359375 -21.546875 C 11.742188 -21.546875 13.109375 -21.390625 14.453125 -21.078125 C 15.804688 -20.773438 16.992188 -20.320312 18.015625 -19.71875 L 16.1875 -15.28125 C 14.164062 -16.363281 12.210938 -16.90625 10.328125 -16.90625 C 9.140625 -16.90625 8.269531 -16.726562 7.71875 -16.375 C 7.175781 -16.019531 6.90625 -15.5625 6.90625 -15 C 6.90625 -14.4375 7.226562 -14.015625 7.875 -13.734375 C 8.519531 -13.453125 9.554688 -13.160156 10.984375 -12.859375 C 12.597656 -12.515625 13.929688 -12.144531 14.984375 -11.75 C 16.046875 -11.363281 16.960938 -10.742188 17.734375 -9.890625 C 18.503906 -9.035156 18.890625 -7.875 18.890625 -6.40625 C 18.890625 -5.132812 18.535156 -3.984375 17.828125 -2.953125 C 17.128906 -1.929688 16.078125 -1.113281 14.671875 -0.5 C 13.265625 0.113281 11.554688 0.421875 9.546875 0.421875 Z M 9.546875 0.421875 "/></g></g></g><g fill="#261519" fill-opacity="1"><g transform="translate(175.159834, 36.471442)"><g><path d="M 9.546875 0.421875 C 7.828125 0.421875 6.160156 0.210938 4.546875 -0.203125 C 2.941406 -0.628906 1.640625 -1.195312 0.640625 -1.90625 L 2.59375 -6.3125 C 3.539062 -5.6875 4.640625 -5.179688 5.890625 -4.796875 C 7.140625 -4.410156 8.363281 -4.21875 9.5625 -4.21875 C 11.863281 -4.21875 13.015625 -4.796875 13.015625 -5.953125 C 13.015625 -6.554688 12.6875 -7.003906 12.03125 -7.296875 C 11.375 -7.585938 10.320312 -7.894531 8.875 -8.21875 C 7.28125 -8.550781 5.953125 -8.914062 4.890625 -9.3125 C 3.828125 -9.707031 2.910156 -10.335938 2.140625 -11.203125 C 1.378906 -12.066406 1 -13.234375 1 -14.703125 C 1 -15.992188 1.347656 -17.15625 2.046875 -18.1875 C 2.753906 -19.226562 3.804688 -20.046875 5.203125 -20.640625 C 6.609375 -21.242188 8.328125 -21.546875 10.359375 -21.546875 C 11.742188 -21.546875 13.109375 -21.390625 14.453125 -21.078125 C 15.804688 -20.773438 16.992188 -20.320312 18.015625 -19.71875 L 16.1875 -15.28125 C 14.164062 -16.363281 12.210938 -16.90625 10.328125 -16.90625 C 9.140625 -16.90625 8.269531 -16.726562 7.71875 -16.375 C 7.175781 -16.019531 6.90625 -15.5625 6.90625 -15 C 6.90625 -14.4375 7.226562 -14.015625 7.875 -13.734375 C 8.519531 -13.453125 9.554688 -13.160156 10.984375 -12.859375 C 12.597656 -12.515625 13.929688 -12.144531 14.984375 -11.75 C 16.046875 -11.363281 16.960938 -10.742188 17.734375 -9.890625 C 18.503906 -9.035156 18.890625 -7.875 18.890625 -6.40625 C 18.890625 -5.132812 18.535156 -3.984375 17.828125 -2.953125 C 17.128906 -1.929688 16.078125 -1.113281 14.671875 -0.5 C 13.265625 0.113281 11.554688 0.421875 9.546875 0.421875 Z M 9.546875 0.421875 "/></g></g></g><g fill="#261519" fill-opacity="1"><g transform="translate(194.691178, 36.471442)"><g><path d="M 21.1875 0 L 21.125 -11.203125 L 15.703125 -2.078125 L 13.046875 -2.078125 L 7.640625 -10.890625 L 7.640625 0 L 2.109375 0 L 2.109375 -21.125 L 7.03125 -21.125 L 14.453125 -8.9375 L 21.703125 -21.125 L 26.625 -21.125 L 26.6875 0 Z M 21.1875 0 "/></g></g></g><g fill="#261519" fill-opacity="1"><g transform="translate(223.490097, 36.471442)"><g><path d="M 16.265625 -4.109375 L 7.328125 -4.109375 L 5.671875 0 L -0.421875 0 L 8.90625 -21.125 L 14.796875 -21.125 L 24.15625 0 L 17.9375 0 Z M 14.515625 -8.515625 L 11.796875 -15.28125 L 9.09375 -8.515625 Z M 14.515625 -8.515625 "/></g></g></g><g fill="#261519" fill-opacity="1"><g transform="translate(247.217509, 36.471442)"><g><path d="M 11.34375 -5.609375 L 8.09375 -5.609375 L 8.09375 0 L 2.109375 0 L 2.109375 -21.125 L 11.765625 -21.125 C 13.679688 -21.125 15.34375 -20.804688 16.75 -20.171875 C 18.164062 -19.546875 19.253906 -18.644531 20.015625 -17.46875 C 20.773438 -16.289062 21.15625 -14.90625 21.15625 -13.3125 C 21.15625 -11.78125 20.796875 -10.445312 20.078125 -9.3125 C 19.367188 -8.175781 18.351562 -7.285156 17.03125 -6.640625 L 21.578125 0 L 15.1875 0 Z M 15.125 -13.3125 C 15.125 -14.300781 14.8125 -15.066406 14.1875 -15.609375 C 13.5625 -16.148438 12.632812 -16.421875 11.40625 -16.421875 L 8.09375 -16.421875 L 8.09375 -10.234375 L 11.40625 -10.234375 C 12.632812 -10.234375 13.5625 -10.5 14.1875 -11.03125 C 14.8125 -11.5625 15.125 -12.320312 15.125 -13.3125 Z M 15.125 -13.3125 "/></g></g></g><g fill="#261519" fill-opacity="1"><g transform="translate(269.556307, 36.471442)"><g><path d="M 6.609375 -16.390625 L 0.125 -16.390625 L 0.125 -21.125 L 19.046875 -21.125 L 19.046875 -16.390625 L 12.59375 -16.390625 L 12.59375 0 L 6.609375 0 Z M 6.609375 -16.390625 "/></g></g></g><g fill="#261519" fill-opacity="1"><g transform="translate(61.311938, 57.712639)"><g><path d="M 2.828125 0.0625 C 2.390625 0.0625 2 -0.015625 1.65625 -0.171875 C 1.3125 -0.328125 1.039062 -0.539062 0.84375 -0.8125 C 0.644531 -1.082031 0.546875 -1.398438 0.546875 -1.765625 L 1.46875 -1.765625 C 1.5 -1.453125 1.625 -1.191406 1.84375 -0.984375 C 2.070312 -0.773438 2.398438 -0.671875 2.828125 -0.671875 C 3.242188 -0.671875 3.566406 -0.769531 3.796875 -0.96875 C 4.035156 -1.175781 4.15625 -1.441406 4.15625 -1.765625 C 4.15625 -2.015625 4.085938 -2.21875 3.953125 -2.375 C 3.816406 -2.539062 3.640625 -2.664062 3.421875 -2.75 C 3.210938 -2.832031 2.929688 -2.921875 2.578125 -3.015625 C 2.140625 -3.128906 1.789062 -3.242188 1.53125 -3.359375 C 1.269531 -3.472656 1.046875 -3.648438 0.859375 -3.890625 C 0.671875 -4.128906 0.578125 -4.457031 0.578125 -4.875 C 0.578125 -5.238281 0.664062 -5.554688 0.84375 -5.828125 C 1.03125 -6.109375 1.289062 -6.320312 1.625 -6.46875 C 1.957031 -6.625 2.34375 -6.703125 2.78125 -6.703125 C 3.394531 -6.703125 3.898438 -6.546875 4.296875 -6.234375 C 4.691406 -5.929688 4.914062 -5.519531 4.96875 -5 L 4.015625 -5 C 3.984375 -5.257812 3.847656 -5.484375 3.609375 -5.671875 C 3.378906 -5.867188 3.070312 -5.96875 2.6875 -5.96875 C 2.320312 -5.96875 2.023438 -5.875 1.796875 -5.6875 C 1.578125 -5.5 1.46875 -5.238281 1.46875 -4.90625 C 1.46875 -4.664062 1.535156 -4.46875 1.671875 -4.3125 C 1.804688 -4.15625 1.972656 -4.035156 2.171875 -3.953125 C 2.367188 -3.878906 2.648438 -3.796875 3.015625 -3.703125 C 3.453125 -3.578125 3.800781 -3.453125 4.0625 -3.328125 C 4.332031 -3.210938 4.5625 -3.035156 4.75 -2.796875 C 4.9375 -2.554688 5.03125 -2.226562 5.03125 -1.8125 C 5.03125 -1.488281 4.941406 -1.179688 4.765625 -0.890625 C 4.597656 -0.609375 4.347656 -0.378906 4.015625 -0.203125 C 3.679688 -0.0234375 3.285156 0.0625 2.828125 0.0625 Z M 2.828125 0.0625 "/></g></g></g><g fill="#261519" fill-opacity="1"><g transform="translate(68.690688, 57.712639)"><g><path d="M 5.828125 -6.625 L 5.828125 0 L 4.96875 0 L 4.96875 -3 L 1.59375 -3 L 1.59375 0 L 0.734375 0 L 0.734375 -6.625 L 1.59375 -6.625 L 1.59375 -3.71875 L 4.96875 -3.71875 L 4.96875 -6.625 Z M 5.828125 -6.625 "/></g></g></g><g fill="#261519" fill-opacity="1"><g transform="translate(77.066115, 57.712639)"><g><path d="M 4.640625 -1.46875 L 1.75 -1.46875 L 1.21875 0 L 0.3125 0 L 2.703125 -6.578125 L 3.703125 -6.578125 L 6.09375 0 L 5.171875 0 Z M 4.40625 -2.171875 L 3.203125 -5.515625 L 2 -2.171875 Z M 4.40625 -2.171875 "/></g></g></g><g fill="#261519" fill-opacity="1"><g transform="translate(85.270681, 57.712639)"><g><path d="M 4.21875 0 L 2.640625 -2.703125 L 1.59375 -2.703125 L 1.59375 0 L 0.734375 0 L 0.734375 -6.625 L 2.875 -6.625 C 3.375 -6.625 3.796875 -6.535156 4.140625 -6.359375 C 4.484375 -6.191406 4.738281 -5.960938 4.90625 -5.671875 C 5.082031 -5.378906 5.171875 -5.046875 5.171875 -4.671875 C 5.171875 -4.210938 5.035156 -3.804688 4.765625 -3.453125 C 4.503906 -3.109375 4.113281 -2.882812 3.59375 -2.78125 L 5.25 0 Z M 1.59375 -3.40625 L 2.875 -3.40625 C 3.34375 -3.40625 3.691406 -3.519531 3.921875 -3.75 C 4.160156 -3.976562 4.28125 -4.285156 4.28125 -4.671875 C 4.28125 -5.066406 4.160156 -5.367188 3.921875 -5.578125 C 3.691406 -5.796875 3.34375 -5.90625 2.875 -5.90625 L 1.59375 -5.90625 Z M 1.59375 -3.40625 "/></g></g></g><g fill="#261519" fill-opacity="1"><g transform="translate(92.848764, 57.712639)"><g><path d="M 1.59375 -6.625 L 1.59375 0 L 0.734375 0 L 0.734375 -6.625 Z M 1.59375 -6.625 "/></g></g></g><g fill="#261519" fill-opacity="1"><g transform="translate(96.99069, 57.712639)"><g><path d="M 5.9375 0 L 5.078125 0 L 1.59375 -5.265625 L 1.59375 0 L 0.734375 0 L 0.734375 -6.625 L 1.59375 -6.625 L 5.078125 -1.375 L 5.078125 -6.625 L 5.9375 -6.625 Z M 5.9375 0 "/></g></g></g><g fill="#261519" fill-opacity="1"><g transform="translate(105.470532, 57.712639)"><g><path d="M 5.75 -4.703125 C 5.5625 -5.085938 5.289062 -5.382812 4.9375 -5.59375 C 4.59375 -5.8125 4.191406 -5.921875 3.734375 -5.921875 C 3.273438 -5.921875 2.859375 -5.8125 2.484375 -5.59375 C 2.109375 -5.382812 1.816406 -5.082031 1.609375 -4.6875 C 1.398438 -4.289062 1.296875 -3.832031 1.296875 -3.3125 C 1.296875 -2.789062 1.398438 -2.332031 1.609375 -1.9375 C 1.816406 -1.550781 2.109375 -1.25 2.484375 -1.03125 C 2.859375 -0.820312 3.273438 -0.71875 3.734375 -0.71875 C 4.378906 -0.71875 4.910156 -0.910156 5.328125 -1.296875 C 5.742188 -1.679688 5.988281 -2.207031 6.0625 -2.875 L 3.421875 -2.875 L 3.421875 -3.578125 L 6.984375 -3.578125 L 6.984375 -2.90625 C 6.929688 -2.363281 6.757812 -1.863281 6.46875 -1.40625 C 6.175781 -0.957031 5.789062 -0.597656 5.3125 -0.328125 C 4.84375 -0.0664062 4.316406 0.0625 3.734375 0.0625 C 3.117188 0.0625 2.554688 -0.0820312 2.046875 -0.375 C 1.546875 -0.664062 1.144531 -1.066406 0.84375 -1.578125 C 0.550781 -2.085938 0.40625 -2.664062 0.40625 -3.3125 C 0.40625 -3.957031 0.550781 -4.535156 0.84375 -5.046875 C 1.144531 -5.566406 1.546875 -5.972656 2.046875 -6.265625 C 2.554688 -6.554688 3.117188 -6.703125 3.734375 -6.703125 C 4.429688 -6.703125 5.050781 -6.523438 5.59375 -6.171875 C 6.132812 -5.828125 6.53125 -5.335938 6.78125 -4.703125 Z M 5.75 -4.703125 "/></g></g></g><g fill="#261519" fill-opacity="1"><g transform="translate(114.662278, 57.712639)"><g/></g></g><g fill="#261519" fill-opacity="1"><g transform="translate(119.003536, 57.712639)"><g><path d="M 2.828125 0.0625 C 2.390625 0.0625 2 -0.015625 1.65625 -0.171875 C 1.3125 -0.328125 1.039062 -0.539062 0.84375 -0.8125 C 0.644531 -1.082031 0.546875 -1.398438 0.546875 -1.765625 L 1.46875 -1.765625 C 1.5 -1.453125 1.625 -1.191406 1.84375 -0.984375 C 2.070312 -0.773438 2.398438 -0.671875 2.828125 -0.671875 C 3.242188 -0.671875 3.566406 -0.769531 3.796875 -0.96875 C 4.035156 -1.175781 4.15625 -1.441406 4.15625 -1.765625 C 4.15625 -2.015625 4.085938 -2.21875 3.953125 -2.375 C 3.816406 -2.539062 3.640625 -2.664062 3.421875 -2.75 C 3.210938 -2.832031 2.929688 -2.921875 2.578125 -3.015625 C 2.140625 -3.128906 1.789062 -3.242188 1.53125 -3.359375 C 1.269531 -3.472656 1.046875 -3.648438 0.859375 -3.890625 C 0.671875 -4.128906 0.578125 -4.457031 0.578125 -4.875 C 0.578125 -5.238281 0.664062 -5.554688 0.84375 -5.828125 C 1.03125 -6.109375 1.289062 -6.320312 1.625 -6.46875 C 1.957031 -6.625 2.34375 -6.703125 2.78125 -6.703125 C 3.394531 -6.703125 3.898438 -6.546875 4.296875 -6.234375 C 4.691406 -5.929688 4.914062 -5.519531 4.96875 -5 L 4.015625 -5 C 3.984375 -5.257812 3.847656 -5.484375 3.609375 -5.671875 C 3.378906 -5.867188 3.070312 -5.96875 2.6875 -5.96875 C 2.320312 -5.96875 2.023438 -5.875 1.796875 -5.6875 C 1.578125 -5.5 1.46875 -5.238281 1.46875 -4.90625 C 1.46875 -4.664062 1.535156 -4.46875 1.671875 -4.3125 C 1.804688 -4.15625 1.972656 -4.035156 2.171875 -3.953125 C 2.367188 -3.878906 2.648438 -3.796875 3.015625 -3.703125 C 3.453125 -3.578125 3.800781 -3.453125 4.0625 -3.328125 C 4.332031 -3.210938 4.5625 -3.035156 4.75 -2.796875 C 4.9375 -2.554688 5.03125 -2.226562 5.03125 -1.8125 C 5.03125 -1.488281 4.941406 -1.179688 4.765625 -0.890625 C 4.597656 -0.609375 4.347656 -0.378906 4.015625 -0.203125 C 3.679688 -0.0234375 3.285156 0.0625 2.828125 0.0625 Z M 2.828125 0.0625 "/></g></g></g><g fill="#261519" fill-opacity="1"><g transform="translate(126.382286, 57.712639)"><g><path d="M 4.8125 -6.625 L 4.8125 -5.921875 L 3 -5.921875 L 3 0 L 2.140625 0 L 2.140625 -5.921875 L 0.328125 -5.921875 L 0.328125 -6.625 Z M 4.8125 -6.625 "/></g></g></g><g fill="#261519" fill-opacity="1"><g transform="translate(133.324398, 57.712639)"><g><path d="M 3.734375 0.0625 C 3.117188 0.0625 2.554688 -0.078125 2.046875 -0.359375 C 1.546875 -0.648438 1.144531 -1.050781 0.84375 -1.5625 C 0.550781 -2.082031 0.40625 -2.664062 0.40625 -3.3125 C 0.40625 -3.957031 0.550781 -4.535156 0.84375 -5.046875 C 1.144531 -5.566406 1.546875 -5.972656 2.046875 -6.265625 C 2.554688 -6.554688 3.117188 -6.703125 3.734375 -6.703125 C 4.359375 -6.703125 4.921875 -6.554688 5.421875 -6.265625 C 5.929688 -5.972656 6.332031 -5.570312 6.625 -5.0625 C 6.914062 -4.550781 7.0625 -3.96875 7.0625 -3.3125 C 7.0625 -2.664062 6.914062 -2.082031 6.625 -1.5625 C 6.332031 -1.050781 5.929688 -0.648438 5.421875 -0.359375 C 4.921875 -0.078125 4.359375 0.0625 3.734375 0.0625 Z M 3.734375 -0.6875 C 4.191406 -0.6875 4.601562 -0.789062 4.96875 -1 C 5.34375 -1.21875 5.632812 -1.523438 5.84375 -1.921875 C 6.0625 -2.328125 6.171875 -2.789062 6.171875 -3.3125 C 6.171875 -3.84375 6.0625 -4.304688 5.84375 -4.703125 C 5.632812 -5.097656 5.347656 -5.40625 4.984375 -5.625 C 4.617188 -5.84375 4.203125 -5.953125 3.734375 -5.953125 C 3.265625 -5.953125 2.84375 -5.84375 2.46875 -5.625 C 2.101562 -5.40625 1.816406 -5.097656 1.609375 -4.703125 C 1.398438 -4.304688 1.296875 -3.84375 1.296875 -3.3125 C 1.296875 -2.789062 1.398438 -2.328125 1.609375 -1.921875 C 1.816406 -1.523438 2.109375 -1.21875 2.484375 -1 C 2.859375 -0.789062 3.273438 -0.6875 3.734375 -0.6875 Z M 3.734375 -0.6875 "/></g></g></g><g fill="#261519" fill-opacity="1"><g transform="translate(142.592086, 57.712639)"><g><path d="M 4.21875 0 L 2.640625 -2.703125 L 1.59375 -2.703125 L 1.59375 0 L 0.734375 0 L 0.734375 -6.625 L 2.875 -6.625 C 3.375 -6.625 3.796875 -6.535156 4.140625 -6.359375 C 4.484375 -6.191406 4.738281 -5.960938 4.90625 -5.671875 C 5.082031 -5.378906 5.171875 -5.046875 5.171875 -4.671875 C 5.171875 -4.210938 5.035156 -3.804688 4.765625 -3.453125 C 4.503906 -3.109375 4.113281 -2.882812 3.59375 -2.78125 L 5.25 0 Z M 1.59375 -3.40625 L 2.875 -3.40625 C 3.34375 -3.40625 3.691406 -3.519531 3.921875 -3.75 C 4.160156 -3.976562 4.28125 -4.285156 4.28125 -4.671875 C 4.28125 -5.066406 4.160156 -5.367188 3.921875 -5.578125 C 3.691406 -5.796875 3.34375 -5.90625 2.875 -5.90625 L 1.59375 -5.90625 Z M 1.59375 -3.40625 "/></g></g></g><g fill="#261519" fill-opacity="1"><g transform="translate(150.170169, 57.712639)"><g><path d="M 1.59375 -6.625 L 1.59375 0 L 0.734375 0 L 0.734375 -6.625 Z M 1.59375 -6.625 "/></g></g></g><g fill="#261519" fill-opacity="1"><g transform="translate(154.312094, 57.712639)"><g><path d="M 1.59375 -5.921875 L 1.59375 -3.703125 L 4.015625 -3.703125 L 4.015625 -3 L 1.59375 -3 L 1.59375 -0.71875 L 4.296875 -0.71875 L 4.296875 0 L 0.734375 0 L 0.734375 -6.625 L 4.296875 -6.625 L 4.296875 -5.921875 Z M 1.59375 -5.921875 "/></g></g></g><g fill="#261519" fill-opacity="1"><g transform="translate(160.988417, 57.712639)"><g><path d="M 2.828125 0.0625 C 2.390625 0.0625 2 -0.015625 1.65625 -0.171875 C 1.3125 -0.328125 1.039062 -0.539062 0.84375 -0.8125 C 0.644531 -1.082031 0.546875 -1.398438 0.546875 -1.765625 L 1.46875 -1.765625 C 1.5 -1.453125 1.625 -1.191406 1.84375 -0.984375 C 2.070312 -0.773438 2.398438 -0.671875 2.828125 -0.671875 C 3.242188 -0.671875 3.566406 -0.769531 3.796875 -0.96875 C 4.035156 -1.175781 4.15625 -1.441406 4.15625 -1.765625 C 4.15625 -2.015625 4.085938 -2.21875 3.953125 -2.375 C 3.816406 -2.539062 3.640625 -2.664062 3.421875 -2.75 C 3.210938 -2.832031 2.929688 -2.921875 2.578125 -3.015625 C 2.140625 -3.128906 1.789062 -3.242188 1.53125 -3.359375 C 1.269531 -3.472656 1.046875 -3.648438 0.859375 -3.890625 C 0.671875 -4.128906 0.578125 -4.457031 0.578125 -4.875 C 0.578125 -5.238281 0.664062 -5.554688 0.84375 -5.828125 C 1.03125 -6.109375 1.289062 -6.320312 1.625 -6.46875 C 1.957031 -6.625 2.34375 -6.703125 2.78125 -6.703125 C 3.394531 -6.703125 3.898438 -6.546875 4.296875 -6.234375 C 4.691406 -5.929688 4.914062 -5.519531 4.96875 -5 L 4.015625 -5 C 3.984375 -5.257812 3.847656 -5.484375 3.609375 -5.671875 C 3.378906 -5.867188 3.070312 -5.96875 2.6875 -5.96875 C 2.320312 -5.96875 2.023438 -5.875 1.796875 -5.6875 C 1.578125 -5.5 1.46875 -5.238281 1.46875 -4.90625 C 1.46875 -4.664062 1.535156 -4.46875 1.671875 -4.3125 C 1.804688 -4.15625 1.972656 -4.035156 2.171875 -3.953125 C 2.367188 -3.878906 2.648438 -3.796875 3.015625 -3.703125 C 3.453125 -3.578125 3.800781 -3.453125 4.0625 -3.328125 C 4.332031 -3.210938 4.5625 -3.035156 4.75 -2.796875 C 4.9375 -2.554688 5.03125 -2.226562 5.03125 -1.8125 C 5.03125 -1.488281 4.941406 -1.179688 4.765625 -0.890625 C 4.597656 -0.609375 4.347656 -0.378906 4.015625 -0.203125 C 3.679688 -0.0234375 3.285156 0.0625 2.828125 0.0625 Z M 2.828125 0.0625 "/></g></g></g><path stroke-linecap="butt" transform="matrix(0.75, 0.000000000000000367, -0.000000000000000367, 0.75, 174.808822, 57.76348)" fill="none" stroke-linejoin="miter" d="M -0.000303688 0.997651 L 116.072618 0.997651 " stroke="#5e17eb" stroke-width="2" stroke-opacity="1" stroke-miterlimit="4"/></svg>